<?xml version="1.0" encoding="UTF-8"?>
<svg id="Layer_1" data-name="Layer 1" xmlns="http://www.w3.org/2000/svg" viewBox="0 0 480.05 163.65">
  <defs>
    <style>
      .cls-1 {
        fill: #6f8faf;
      }

      .cls-2 {
        fill: #193443;
      }
    </style>
  </defs>
  <path class="cls-2" d="M24.72,56.31l2.6.54,3.8-2.99,9.56,9.87h3.29l14.57,11.91,5.02-2.51,3.92,1.88,23.19-17.71,21.78,21.78,9.87-1.1,2.33,2.28c1.09-4.56,1.64-9.23,1.64-13.92,0-33.1-26.83-59.94-59.93-59.94S6.43,33.26,6.43,66.36c0,3.28.27,6.49.78,9.62l17.52-19.67ZM24.72,56.31"/>
  <path class="cls-1" d="M99.68,80.31l-3.82,18.07-8.56-30.8,3.72,2.67-1.15-7.43-22.3,15.72-4.1-.86-3.14,2.29,4.87,6.89,5.81,1.33-1.71,17.94-28.49-36.33-17.99,21.27,10.37-22.98-3.71-10.01-.42.17-20.77,22.96c6.61,25.91,30.1,45.08,58.08,45.08,21.2,0,39.82-11.02,50.47-27.63l-17.15-18.36ZM99.68,80.31"/>
  <path class="cls-2" d="M66.36,132.72C29.77,132.72,0,102.95,0,66.36S29.77,0,66.36,0s66.36,29.77,66.36,66.36-29.77,66.36-66.36,66.36h0ZM66.36,2.64C31.22,2.64,2.64,31.22,2.64,66.36s28.59,63.72,63.72,63.72,63.72-28.59,63.72-63.72S101.5,2.64,66.36,2.64h0ZM66.36,2.64"/>
  <path class="cls-2" d="M145.25,122.43c-.67-.88-1-1.71-1-2.47s.05-1.27.17-1.48L182.63,13.39c1.21-3.18,3.41-4.76,6.59-4.76h25.52c3.19,0,5.38,1.59,6.59,4.76l38.2,105.08c.11.22.17.72.17,1.48,0,.88-.36,1.67-1.08,2.39-.71.71-1.5,1.06-2.38,1.06h-21.25c-2.75,0-4.62-1.21-5.61-3.62l-8.56-23.22c-3.95,1.54-7.95,2.81-12.02,3.8-4.06.98-7.99,1.72-11.78,2.22-3.78.49-7.32.82-10.63.98-3.29.17-6.15.25-8.56.25h-3.86c-1.04,0-1.84-.05-2.39-.17,1.98.34,3.6,1.43,4.86,3.3,1.26,1.87,1.39,4.06.41,6.59l-2.3,6.25c-.99,2.42-2.86,3.62-5.61,3.62h-21.24c-.77,0-1.59-.33-2.47-.98h0ZM187.08,80.27c3.07-.23,6.25-.61,9.55-1.16,2.85-.44,5.84-1.07,8.97-1.89,3.13-.83,6.13-2.01,8.99-3.55l-12.69-36.23-14.81,42.83ZM320.46,125.05c-15.7,0-28.02-3.79-36.97-11.36-8.95-7.57-13.7-18.66-14.25-33.27-.11-2.97-.16-7.8-.16-14.48s.05-11.75.16-14.83c.55-14.27,5.35-25.27,14.41-33.02,9.06-7.74,21.33-11.61,36.81-11.61,9.77,0,18.52,1.59,26.27,4.78,7.75,3.18,13.88,7.79,18.38,13.83,4.5,6.03,6.86,13.17,7.08,21.41,0,.99-.36,1.81-1.08,2.47-.71.66-1.56.99-2.55.99h-23.39c-1.53,0-2.66-.3-3.38-.91-.71-.6-1.34-1.73-1.89-3.38-1.54-5.37-3.87-9.13-7-11.27-3.13-2.14-7.27-3.22-12.44-3.22-12.41,0-18.83,6.92-19.27,20.75-.11,2.96-.16,7.51-.16,13.66s.05,10.83.16,14c.44,13.84,6.86,20.75,19.27,20.75,5.05,0,9.2-1.09,12.44-3.28,3.24-2.19,5.57-5.93,7-11.2.44-1.64,1.04-2.77,1.81-3.38.77-.6,1.92-.91,3.45-.91h23.39c.99,0,1.84.33,2.55.98.72.66,1.08,1.48,1.08,2.47-.22,8.24-2.58,15.38-7.08,21.42-4.5,6.03-10.63,10.64-18.38,13.83-7.74,3.18-16.5,4.77-26.27,4.77h0ZM320.46,125.05"/>
  <path class="cls-2" d="M474.77,8.13c1.21,0,2.22.41,3.05,1.23.82.82,1.23,1.79,1.23,2.89v18.44c0,1.21-.41,2.2-1.23,2.97-.82.76-1.84,1.14-3.05,1.14h-38.2c2.41,0,4.58.88,6.5,2.64,1.93,1.76,2.89,3.74,2.89,5.94v75.42c0,1.21-.45,2.14-1.33,2.8-.77.77-1.76,1.16-2.95,1.16h-22.91c-1.2,0-2.18-.38-2.95-1.16-.89-.66-1.33-1.59-1.33-2.8V39.75c0-1.54-.5-2.75-1.48-3.62-.98-.88-2.13-1.33-3.45-1.33h-23.88c-1.09,0-2.09-.38-2.97-1.14-.88-.77-1.31-1.76-1.31-2.97v-8.41c0-2.08.41-4,1.23-5.75.82-1.76,1.91-3.27,3.28-4.53,1.38-1.27,2.91-2.24,4.61-2.89,1.71-.66,3.44-.98,5.2-.98h79.05ZM474.77,8.13"/>
  <g>
    <path class="cls-2" d="M.44,163.2c-.12-.14-.17-.28-.17-.41s0-.22.04-.26l6.56-18.03c.2-.55.58-.82,1.13-.82h4.37c.55,0,.92.28,1.13.82l6.56,18.03s.02.13.02.26c0,.15-.07.28-.2.41-.12.12-.25.17-.39.17h-3.65c-.47,0-.78-.21-.96-.63l-1.48-3.98c-.67.26-1.36.48-2.06.65-.7.17-1.37.3-2.02.39-.65.08-1.26.13-1.82.15-.57.03-1.05.04-1.46.04h-.67c-.17,0-.31,0-.41-.02.35.06.63.25.85.56.22.32.24.7.07,1.13l-.39,1.06c-.17.42-.49.63-.96.63H.87c-.13,0-.28-.05-.43-.17H.44ZM7.63,155.96c.52-.03,1.07-.09,1.63-.19.49-.07,1.01-.18,1.54-.33.53-.14,1.05-.35,1.54-.61l-2.17-6.21-2.54,7.34ZM22.37,162.59v-16.58c0-.36.07-.68.22-.98.14-.3.33-.55.54-.76.23-.22.49-.38.78-.5.3-.13.61-.2.91-.2h2.17c.23,0,.4.07.52.2.13.15.2.32.2.52v13.71c0,.15.07.33.22.54.16.22.37.33.63.33h7.6c.18,0,.35.07.5.2.16.13.24.3.24.52v3c0,.21-.08.37-.24.5-.15.13-.31.2-.5.2h-13.08c-.19,0-.36-.07-.5-.2-.15-.14-.22-.31-.22-.5h0ZM22.37,162.59"/>
    <path class="cls-2" d="M53.98,143.58c.49,0,.74.25.74.74v3.15c0,.22-.07.39-.2.5-.13.13-.32.2-.54.2h-6.52c.4,0,.77.15,1.09.46.33.3.5.65.5,1.02v12.95c0,.22-.08.39-.22.52-.13.12-.3.17-.52.17h-3.91c-.19,0-.36-.07-.52-.2-.15-.13-.22-.29-.22-.5v-13.56c0-.26-.09-.47-.26-.63-.17-.16-.37-.24-.59-.24h-4.08c-.23,0-.41-.07-.54-.2-.13-.11-.2-.28-.2-.5v-1.46c0-.74.25-1.33.76-1.76.5-.44,1.07-.67,1.69-.67h13.53ZM53.98,143.58"/>
    <path class="cls-2" d="M57.2,162.65v-16.53c0-.71.24-1.29.74-1.76.49-.46,1.07-.7,1.74-.7h2.26c.22,0,.38.07.5.19.13.13.19.3.19.52v18.27c0,.22-.07.39-.19.52-.12.13-.28.19-.5.19h-4.02c-.21,0-.38-.06-.52-.19-.13-.13-.19-.3-.19-.52h0ZM57.2,162.65"/>
    <path class="cls-2" d="M81.22,143.58c.49,0,.74.25.74.74v3.15c0,.22-.06.39-.19.5-.13.13-.32.2-.54.2h-6.52c.4,0,.76.15,1.09.46.33.3.5.65.5,1.02v12.95c0,.22-.08.39-.22.52-.13.12-.3.17-.52.17h-3.91c-.19,0-.36-.07-.52-.2-.15-.13-.22-.29-.22-.5v-13.56c0-.26-.09-.47-.26-.63-.17-.16-.37-.24-.59-.24h-4.08c-.23,0-.41-.07-.54-.2-.13-.11-.2-.28-.2-.5v-1.46c0-.74.25-1.33.76-1.76.5-.44,1.07-.67,1.69-.67h13.53ZM81.22,143.58"/>
    <path class="cls-2" d="M84.37,155.85v-9.78c0-.38.07-.72.22-1.02.14-.3.33-.55.56-.76.24-.2.51-.36.8-.48.29-.11.58-.17.87-.17h2.09c.2,0,.38.08.52.22.14.13.22.3.22.52v11.41c0,1.08.25,1.93.76,2.56.52.64,1.34.96,2.45.96s1.92-.32,2.43-.96c.51-.65.76-1.5.76-2.56v-9.71c0-.4.08-.75.24-1.04.16-.3.35-.55.59-.76.24-.22.51-.37.8-.48.29-.1.56-.15.83-.15h2.11c.2,0,.37.08.5.22.14.13.22.3.22.52v11.47c0,1.34-.2,2.49-.59,3.48-.39.99-.97,1.8-1.72,2.43-.74.62-1.63,1.1-2.67,1.41-1.03.3-2.19.46-3.48.46s-2.43-.15-3.48-.46-1.95-.77-2.69-1.41c-.75-.64-1.34-1.44-1.74-2.43-.41-.98-.61-2.14-.61-3.48h0ZM84.37,155.85"/>
    <path class="cls-2" d="M105,162.65v-16.53c0-.71.24-1.29.74-1.76.5-.46,1.09-.7,1.74-.7h5.65c1.26,0,2.42.15,3.48.46,1.07.29,2,.75,2.78,1.39.79.62,1.42,1.42,1.87,2.39.46.97.71,2.12.74,3.45.03.26.04.58.04.96v2.41c0,.36-.02.67-.04.93-.16,5.14-3.07,7.71-8.73,7.71h-7.54c-.21,0-.38-.06-.52-.19-.13-.13-.19-.3-.19-.52h0ZM113.12,159.15c1.22,0,2.1-.29,2.65-.89.55-.59.83-1.48.85-2.67.01-.26.03-.57.04-.91.01-.35.02-.74.02-1.17s-.01-.83-.02-1.17c-.02-.35-.03-.65-.04-.91-.06-2.36-1.28-3.54-3.65-3.54h-4.24c.44,0,.8.16,1.11.48.3.3.46.64.46,1v8.93c0,.25.08.46.24.63.16.16.37.24.63.24h1.95ZM113.12,159.15"/>
    <path class="cls-2" d="M125.36,162.61v-16.53c0-.72.24-1.31.72-1.76.49-.46,1.07-.7,1.74-.7h11.54c.18,0,.35.08.5.22.16.15.24.31.24.5v2.8c0,.22-.08.38-.24.48-.13.13-.3.2-.5.2h-10.47c.46,0,.84.17,1.13.5.29.32.43.67.43,1.04v1.17c0,.22.07.42.22.61.16.19.37.28.65.28h6.15c.48,0,.72.25.72.74v2.54c0,.48-.24.72-.72.72h-8.58c.44,0,.8.15,1.11.46.3.3.46.65.46,1.02v1.32c0,.22.08.42.24.61.16.19.37.28.63.28h8.26c.2,0,.38.08.52.22.14.13.22.3.22.5v2.78c0,.21-.08.37-.24.5-.15.13-.31.2-.5.2h-13.51c-.21,0-.37-.07-.5-.2-.13-.13-.2-.29-.2-.5h0ZM125.36,162.61"/>
    <path class="cls-2" d="M157.6,163.65c-2.69,0-4.81-.65-6.34-1.96-1.54-1.3-2.36-3.2-2.45-5.71-.02-.5-.02-1.33-.02-2.48s0-2.02.02-2.54c.1-2.44.92-4.34,2.48-5.67,1.55-1.33,3.66-2,6.32-2,1.68,0,3.18.28,4.5.83,1.33.55,2.38,1.35,3.15,2.39.78,1.03,1.18,2.25,1.22,3.65,0,.18-.07.32-.2.44-.12.12-.25.17-.41.17h-4.02c-.26,0-.46-.05-.59-.15-.12-.11-.23-.31-.33-.59-.26-.92-.66-1.57-1.19-1.93-.54-.37-1.25-.56-2.13-.56-2.13,0-3.23,1.19-3.3,3.56-.03.51-.04,1.29-.04,2.35s.01,1.86.04,2.41c.07,2.38,1.17,3.56,3.3,3.56.87,0,1.58-.18,2.13-.57.55-.37.95-1.02,1.19-1.93.07-.27.17-.46.3-.56.14-.1.35-.15.61-.15h4.02c.16,0,.29.06.41.17.13.1.2.24.2.41-.03,1.41-.44,2.63-1.22,3.67-.77,1.04-1.82,1.84-3.15,2.39-1.32.53-2.82.8-4.5.8h0ZM157.6,163.65"/>
    <path class="cls-2" d="M177.54,163.65c-2.68,0-4.8-.65-6.34-1.96-1.54-1.3-2.36-3.21-2.46-5.74-.02-.52-.02-1.33-.02-2.43s0-1.9.02-2.45c.07-2.49.9-4.41,2.48-5.76,1.57-1.35,3.68-2.02,6.32-2.02s4.71.67,6.28,2.02c1.58,1.35,2.4,3.27,2.48,5.76.04,1.1.07,1.92.07,2.45,0,.57-.02,1.38-.07,2.43-.09,2.52-.91,4.43-2.45,5.74-1.54,1.3-3.64,1.96-6.3,1.96h0ZM177.54,159.41c.97,0,1.74-.29,2.32-.89.59-.59.91-1.5.96-2.74.03-1.09.04-1.87.04-2.35s-.02-1.22-.04-2.28c-.04-1.23-.36-2.14-.96-2.74-.58-.59-1.36-.89-2.32-.89s-1.8.3-2.39.89c-.58.6-.89,1.51-.91,2.74-.03.52-.04,1.28-.04,2.28s.01,1.81.04,2.35c.03,1.23.33,2.15.91,2.74.59.6,1.39.89,2.39.89h0ZM177.54,159.41"/>
    <path class="cls-2" d="M189.61,162.59v-16.55c0-.65.23-1.22.7-1.72.48-.49,1.07-.74,1.76-.74h.91c.22,0,.46.04.74.13.29.09.59.34.89.76,1.11,1.73,2.11,3.29,3,4.69.55.84.98,1.52,1.28,2.02.32.49.61.96.87,1.39.27.42.5.78.7,1.09.18.29.3.47.35.52.04.04.09.07.13.07.1,0,.15-.05.15-.15v-8.06c0-.38.07-.71.2-1,.14-.3.33-.55.56-.76.23-.22.49-.38.78-.5.3-.13.61-.2.91-.2h1.85c.2,0,.36.07.48.2.13.15.19.33.19.54v18.23c0,.22-.06.39-.19.52-.12.15-.28.22-.48.22h-3.19c-.47,0-.79-.18-.98-.54-1.13-1.72-2.15-3.27-3.04-4.65-.56-.84-1.01-1.5-1.32-2-.32-.49-.62-.95-.89-1.37-.28-.44-.51-.79-.7-1.09-.19-.29-.3-.46-.35-.52-.06-.06-.1-.09-.13-.09-.12,0-.17.04-.17.13v9.43c0,.22-.07.39-.2.52-.13.12-.31.17-.54.17h-3.56c-.19,0-.36-.07-.5-.2-.13-.14-.2-.31-.2-.5h0ZM189.61,162.59"/>
    <path class="cls-2" d="M224.5,143.58c.49,0,.74.25.74.74v3.15c0,.22-.07.39-.19.5-.13.13-.32.2-.54.2h-6.52c.4,0,.77.15,1.09.46.33.3.5.65.5,1.02v12.95c0,.22-.08.39-.22.52-.13.12-.3.17-.52.17h-3.91c-.19,0-.36-.07-.52-.2-.15-.13-.22-.29-.22-.5v-13.56c0-.26-.09-.47-.26-.63-.17-.16-.37-.24-.59-.24h-4.08c-.23,0-.41-.07-.54-.2-.13-.11-.2-.28-.2-.5v-1.46c0-.74.25-1.33.76-1.76.5-.44,1.07-.67,1.69-.67h13.53ZM224.5,143.58"/>
    <path class="cls-2" d="M244.37,163.15c-.12.1-.26.15-.44.15h-3.95c-.55,0-.93-.25-1.15-.76l-2.87-5.65c-.16-.3-.41-.46-.76-.46h-3.74c.49,0,.87.17,1.15.52.27.34.41.66.41.98v4.67c0,.22-.07.39-.2.52-.13.12-.31.17-.54.17h-3.84c-.21,0-.37-.07-.5-.2-.13-.13-.19-.29-.19-.5v-16.53c0-.7.24-1.27.72-1.74.49-.48,1.07-.72,1.74-.72h6c1.05,0,2.05.12,3,.35.96.23,1.79.6,2.5,1.11.72.51,1.3,1.17,1.74,2,.44.83.65,1.82.65,2.98s-.25,2.21-.74,3.09c-.48.89-1.23,1.61-2.26,2.17-.16.12-.24.24-.24.37s.02.23.07.3l3.54,6.43c.06.12.09.22.09.3,0,.13-.06.28-.17.43h0ZM238.63,150.03c0-.77-.23-1.35-.67-1.76-.44-.4-1.04-.61-1.8-.61h-4.85c.45,0,.81.17,1.09.5.29.32.43.66.43,1.02v2.26c0,.25.08.46.24.63.17.16.38.24.63.24h2.46c.77,0,1.37-.18,1.8-.56.44-.37.67-.95.67-1.72h0ZM238.63,150.03"/>
    <path class="cls-2" d="M255.44,163.65c-2.68,0-4.8-.65-6.34-1.96-1.54-1.3-2.36-3.21-2.45-5.74-.02-.52-.02-1.33-.02-2.43s0-1.9.02-2.45c.07-2.49.9-4.41,2.48-5.76,1.58-1.35,3.68-2.02,6.32-2.02s4.71.67,6.28,2.02c1.58,1.35,2.4,3.27,2.48,5.76.04,1.1.07,1.92.07,2.45,0,.57-.02,1.38-.07,2.43-.09,2.52-.91,4.43-2.46,5.74-1.54,1.3-3.64,1.96-6.3,1.96h0ZM255.44,159.41c.97,0,1.74-.29,2.32-.89.59-.59.91-1.5.96-2.74.03-1.09.04-1.87.04-2.35s-.02-1.22-.04-2.28c-.04-1.23-.36-2.14-.96-2.74-.58-.59-1.36-.89-2.32-.89s-1.8.3-2.39.89c-.58.6-.89,1.51-.91,2.74-.03.52-.04,1.28-.04,2.28s0,1.81.04,2.35c.03,1.23.33,2.15.91,2.74.59.6,1.39.89,2.39.89h0ZM255.44,159.41"/>
    <path class="cls-2" d="M267.52,162.59v-16.58c0-.36.07-.68.22-.98.14-.3.33-.55.54-.76.23-.22.49-.38.78-.5.3-.13.61-.2.91-.2h2.17c.23,0,.4.07.52.2.13.15.2.32.2.52v13.71c0,.15.07.33.22.54.16.22.37.33.63.33h7.6c.18,0,.35.07.5.2.16.13.24.3.24.52v3c0,.21-.08.37-.24.5-.15.13-.32.2-.5.2h-13.08c-.19,0-.36-.07-.5-.2-.15-.14-.22-.31-.22-.5h0ZM267.52,162.59"/>
    <path class="cls-2" d="M305.07,143.58c.22,0,.39.08.52.22.14.15.22.32.22.5v3.17c0,.21-.08.37-.22.5-.13.13-.3.2-.52.2h-6.56c.42,0,.79.15,1.13.46.33.3.5.65.5,1.02v12.95c0,.21-.08.36-.24.48-.13.13-.3.19-.5.19h-3.93c-.21,0-.37-.06-.5-.19-.16-.11-.24-.27-.24-.48v-13.58c0-.26-.09-.46-.26-.61-.16-.16-.36-.24-.59-.24h-4.11c-.19,0-.36-.07-.5-.2-.15-.13-.22-.29-.22-.5v-1.46c0-.36.06-.68.19-.98.14-.3.33-.56.56-.78.24-.22.51-.38.8-.5.29-.11.59-.17.89-.17h13.56ZM305.07,143.58"/>
    <path class="cls-2" d="M305.84,162.61v-16.53c0-.72.24-1.31.72-1.76.49-.46,1.07-.7,1.74-.7h11.54c.18,0,.35.08.5.22.16.15.24.31.24.5v2.8c0,.22-.08.38-.24.48-.13.13-.3.2-.5.2h-10.47c.46,0,.84.17,1.13.5.29.32.43.67.43,1.04v1.17c0,.22.07.42.22.61.16.19.38.28.65.28h6.15c.48,0,.72.25.72.74v2.54c0,.48-.24.72-.72.72h-8.58c.44,0,.8.15,1.11.46s.46.65.46,1.02v1.32c0,.22.08.42.24.61.16.19.37.28.63.28h8.26c.2,0,.37.08.52.22.14.13.22.3.22.5v2.78c0,.21-.08.37-.24.5-.15.13-.32.2-.5.2h-13.51c-.21,0-.37-.07-.5-.2-.13-.13-.19-.29-.19-.5h0ZM305.84,162.61"/>
    <path class="cls-2" d="M323.35,156.03c-.02-.26-.02-.59-.02-1v-2.98c0-.42,0-.77.02-1.04.04-1.29.29-2.41.74-3.37.46-.97,1.07-1.77,1.85-2.39.78-.62,1.7-1.09,2.76-1.39,1.05-.31,2.2-.48,3.41-.48,1.09,0,2.15.14,3.19.41,1.04.26,1.98.67,2.8,1.24.84.56,1.51,1.28,2.02,2.13.52.86.79,1.88.8,3.06,0,.17-.05.32-.15.44-.15.1-.3.15-.46.15h-4c-.28,0-.48-.05-.61-.15-.12-.11-.21-.3-.28-.56-.25-.9-.63-1.53-1.15-1.91-.52-.38-1.25-.57-2.17-.57-2.13,0-3.23,1.18-3.3,3.54-.02.26-.02.58-.02.96v2.78c0,.39,0,.72.02.98.1,2.38,1.2,3.56,3.3,3.56.84,0,1.55-.18,2.13-.56.55-.39.94-1.03,1.19-1.91.09-.3.18-.49.3-.56.14-.11.34-.17.59-.17h4c.16,0,.31.06.46.17.1.1.15.24.15.41-.02,1.21-.29,2.24-.82,3.11-.52.87-1.21,1.59-2.04,2.15-.84.55-1.78.96-2.82,1.22-1.03.24-2.08.37-3.13.37-1.26,0-2.41-.15-3.46-.46-1.04-.3-1.95-.76-2.74-1.37-.77-.62-1.38-1.41-1.82-2.37-.45-.97-.7-2.11-.74-3.43h0ZM323.35,156.03"/>
    <path class="cls-2" d="M343.86,162.65v-16.53c0-.7.24-1.27.74-1.74.49-.48,1.06-.72,1.72-.72h2.11c.2,0,.37.08.5.22.14.15.22.32.22.52v6.56c0,.32.11.54.35.67.23.12.41.17.54.17,1.16,0,2.13-.09,2.91-.26.78-.17,1.54-.42,2.28-.74.14-.07.27-.17.39-.3.11-.13.17-.29.17-.5v-3.89c0-.37.07-.71.22-1,.14-.3.33-.55.56-.76.23-.22.49-.38.78-.5.29-.13.59-.19.89-.19h2.11c.2,0,.37.08.5.22.14.15.22.32.22.52v18.25c0,.23-.07.41-.2.54-.13.12-.3.17-.52.17h-3.82c-.19,0-.36-.06-.52-.19-.15-.13-.22-.3-.22-.52v-6.69c0-.27-.1-.47-.28-.59-.17-.13-.36-.19-.57-.19-.13,0-.23.01-.28.02-.93.26-1.86.43-2.78.52-.93.09-1.75.13-2.48.13h-.96c-.26-.01-.47-.03-.63-.07.38.06.69.23.93.52.26.28.39.6.39.96v5.39c0,.23-.06.41-.19.54-.13.12-.3.17-.52.17h-3.85c-.22,0-.39-.06-.52-.19-.13-.13-.19-.3-.19-.52h0ZM343.86,162.65"/>
    <path class="cls-2" d="M364.98,162.59v-16.55c0-.65.23-1.22.7-1.72.48-.49,1.07-.74,1.76-.74h.91c.22,0,.46.04.74.13.29.09.59.34.89.76,1.11,1.73,2.11,3.29,3,4.69.55.84.98,1.52,1.28,2.02.32.49.61.96.87,1.39.27.42.5.78.7,1.09.18.29.3.47.35.52.04.04.09.07.13.07.1,0,.15-.05.15-.15v-8.06c0-.38.07-.71.2-1,.14-.3.33-.55.56-.76.23-.22.49-.38.78-.5.3-.13.61-.2.91-.2h1.85c.2,0,.36.07.48.2.13.15.19.33.19.54v18.23c0,.22-.07.39-.19.52-.12.15-.28.22-.48.22h-3.19c-.47,0-.79-.18-.98-.54-1.13-1.72-2.15-3.27-3.04-4.65-.56-.84-1.01-1.5-1.33-2-.32-.49-.62-.95-.89-1.37-.28-.44-.51-.79-.7-1.09-.19-.29-.3-.46-.35-.52-.06-.06-.1-.09-.13-.09-.12,0-.17.04-.17.13v9.43c0,.22-.07.39-.2.52-.13.12-.31.17-.54.17h-3.56c-.19,0-.36-.07-.5-.2-.13-.14-.2-.31-.2-.5h0ZM364.98,162.59"/>
    <path class="cls-2" d="M393.49,163.65c-2.68,0-4.8-.65-6.34-1.96-1.54-1.3-2.36-3.21-2.45-5.74-.02-.52-.02-1.33-.02-2.43s0-1.9.02-2.45c.07-2.49.9-4.41,2.48-5.76,1.58-1.35,3.68-2.02,6.32-2.02s4.71.67,6.28,2.02c1.57,1.35,2.4,3.27,2.48,5.76.04,1.1.07,1.92.07,2.45,0,.57-.02,1.38-.07,2.43-.09,2.52-.91,4.43-2.46,5.74-1.54,1.3-3.64,1.96-6.3,1.96h0ZM393.49,159.41c.97,0,1.74-.29,2.32-.89.59-.59.91-1.5.96-2.74.03-1.09.04-1.87.04-2.35s-.02-1.22-.04-2.28c-.04-1.23-.36-2.14-.96-2.74-.58-.59-1.36-.89-2.32-.89s-1.8.3-2.39.89c-.58.6-.88,1.51-.91,2.74-.03.52-.04,1.28-.04,2.28s.01,1.81.04,2.35c.03,1.23.33,2.15.91,2.74.59.6,1.39.89,2.39.89h0ZM393.49,159.41"/>
    <path class="cls-2" d="M405.57,162.59v-16.58c0-.36.07-.68.22-.98.14-.3.33-.55.54-.76.23-.22.49-.38.78-.5.3-.13.61-.2.91-.2h2.17c.23,0,.4.07.52.2.13.15.19.32.19.52v13.71c0,.15.07.33.22.54.16.22.37.33.63.33h7.6c.18,0,.35.07.5.2.16.13.24.3.24.52v3c0,.21-.08.37-.24.5-.15.13-.32.2-.5.2h-13.08c-.19,0-.36-.07-.5-.2-.15-.14-.22-.31-.22-.5h0ZM405.57,162.59"/>
    <path class="cls-2" d="M430.67,163.65c-2.68,0-4.8-.65-6.34-1.96-1.54-1.3-2.36-3.21-2.46-5.74-.02-.52-.02-1.33-.02-2.43s0-1.9.02-2.45c.07-2.49.9-4.41,2.48-5.76,1.58-1.35,3.68-2.02,6.32-2.02s4.71.67,6.28,2.02c1.58,1.35,2.4,3.27,2.48,5.76.04,1.1.07,1.92.07,2.45,0,.57-.02,1.38-.07,2.43-.09,2.52-.91,4.43-2.46,5.74-1.54,1.3-3.64,1.96-6.3,1.96h0ZM430.67,159.41c.97,0,1.74-.29,2.32-.89.59-.59.91-1.5.96-2.74.03-1.09.04-1.87.04-2.35s-.02-1.22-.04-2.28c-.04-1.23-.36-2.14-.96-2.74-.58-.59-1.36-.89-2.32-.89s-1.8.3-2.39.89c-.58.6-.88,1.51-.91,2.74-.03.52-.04,1.28-.04,2.28s.01,1.81.04,2.35c.03,1.23.33,2.15.91,2.74.59.6,1.39.89,2.39.89h0ZM430.67,159.41"/>
    <path class="cls-2" d="M442.12,155.77c-.02-.26-.02-.6-.02-1.02v-3.08c0-.44,0-.78.02-1.04.04-1.3.3-2.42.78-3.37.48-.94,1.11-1.71,1.91-2.3.79-.61,1.72-1.05,2.76-1.35,1.05-.29,2.19-.44,3.41-.44.7,0,1.4.06,2.13.17.72.1,1.42.28,2.11.52.7.25,1.34.58,1.93.98.61.39,1.13.87,1.59,1.43.72.9,1.09,1.84,1.11,2.8,0,.16-.06.3-.19.44-.12.12-.26.17-.41.17h-4.37c-.21,0-.34-.03-.41-.11-.13-.07-.24-.16-.33-.28-.1-.26-.25-.5-.43-.72-.17-.22-.39-.42-.63-.63-.52-.38-1.22-.57-2.09-.57-2.17,0-3.3,1.13-3.39,3.39-.03.26-.04.6-.04,1v2.85c0,.41.01.75.04,1.02.03,1.17.33,2.06.89,2.65.56.6,1.55.89,2.98.89.44,0,.81,0,1.09-.02.29-.03.53-.08.72-.15.2-.07.38-.16.52-.26.14-.1.3-.22.48-.35.4-.37.67-.84.8-1.39.09-.3.21-.55.37-.76.16-.2.33-.36.52-.48.2-.13.4-.22.59-.28.2-.05.37-.09.5-.09h-5c-.23,0-.41-.07-.52-.19-.12-.14-.17-.33-.17-.54v-.48c0-.27.05-.55.15-.85.1-.3.25-.56.46-.78.22-.23.47-.42.76-.56.3-.16.65-.24,1.04-.24h4.19c.7,0,1.19.19,1.5.56.32.36.48.86.48,1.48v1.95c0,1.34-.25,2.49-.74,3.45-.49.97-1.15,1.77-1.98,2.39-.81.62-1.76,1.09-2.85,1.39-1.08.3-2.21.46-3.39.46-1.25,0-2.41-.15-3.48-.46-1.06-.3-1.98-.77-2.76-1.39-.78-.62-1.41-1.42-1.87-2.39-.47-.97-.72-2.11-.76-3.43h0ZM442.12,155.77"/>
    <path class="cls-2" d="M468.19,162.63v-5.02c0-.3-.04-.61-.13-.91-.08-.32-.17-.58-.28-.78l-6.11-11.36c-.04-.1-.07-.21-.07-.33,0-.14.05-.27.17-.39.11-.13.25-.2.41-.2h3.69c.22,0,.42.05.61.15.2.1.34.26.41.48.68,1.22,1.29,2.32,1.85,3.3.31.6.57,1.08.76,1.43.2.35.38.67.54.98.16.29.29.54.41.76.13.21.2.32.22.35.04.06.09.09.15.09.05,0,.09-.03.11-.09.01-.03.08-.15.19-.37.13-.22.28-.48.46-.8.18-.32.39-.69.61-1.11.23-.42.46-.83.7-1.24.55-.98,1.16-2.09,1.83-3.3.24-.42.59-.63,1.02-.63h3.72c.14,0,.27.07.39.2.13.12.2.25.2.39,0,.12-.03.23-.09.33-1.09,2.03-2.07,3.86-2.95,5.48-.54,1-.97,1.79-1.28,2.37-.3.56-.59,1.1-.85,1.61-.26.49-.49.91-.67,1.26-.19.35-.3.55-.35.61-.13.25-.23.52-.3.8-.06.29-.09.58-.09.85v5.11c0,.23-.07.41-.19.54-.13.12-.32.17-.54.17h-3.85c-.21,0-.37-.07-.5-.2-.13-.14-.2-.31-.2-.52h0ZM468.19,162.63"/>
  </g>
</svg>